P3
# mcg@lercm@isel 2013/2014
5 3
255
0 0 0 0 0 0 0 0 0 0 0 0 0 0 0 
0 0 0 255 0 0 255 255 0 0 255 0 0 0 0 
0 0 0 0 0 0 0 0 0 0 0 0 0 0 0 
