P3
# mcg@lercm@isel 2013/2014
50 50
255
0 0 51 0 0 51 0 0 51 0 0 51 0 0 51 0 0 51 0 0 51 0 0 51 0 0 51 0 0 51 0 0 51 0 0 51 0 0 51 0 0 51 0 0 51 0 0 51 0 0 51 0 0 51 0 0 51 0 0 51 0 0 51 0 0 51 0 0 51 0 0 51 0 0 51 0 0 51 0 0 51 0 0 51 0 0 51 0 0 51 0 0 51 0 0 51 0 0 51 0 0 51 0 0 51 0 0 51 0 0 51 0 0 51 0 0 51 0 0 51 0 0 51 0 0 51 0 0 51 0 0 51 0 0 51 0 0 51 0 0 51 0 0 51 0 0 51 0 0 51 
0 0 51 0 0 51 0 0 51 0 0 51 0 0 51 0 0 51 0 0 51 0 0 51 0 0 51 0 0 51 0 0 51 0 0 51 0 0 51 0 0 51 0 0 51 0 0 51 0 0 51 0 0 51 0 0 51 0 0 51 0 0 51 0 0 51 0 0 51 0 0 51 0 0 51 0 0 51 0 0 51 0 0 51 0 0 51 0 0 51 0 0 51 0 0 51 0 0 51 0 0 51 0 0 51 0 0 51 0 0 51 0 0 51 0 0 51 0 0 51 0 0 51 0 0 51 0 0 51 0 0 51 0 0 51 0 0 51 0 0 51 0 0 51 0 0 51 0 0 51 
0 0 51 0 0 51 0 0 51 0 0 51 0 0 51 0 0 51 0 0 51 0 0 51 0 0 51 0 0 51 0 0 51 0 0 51 0 0 51 0 0 51 0 0 51 0 0 51 0 0 51 0 0 51 0 0 51 0 0 51 0 0 51 0 0 51 0 0 51 0 0 51 0 0 51 0 0 51 0 0 51 0 0 51 0 0 51 0 0 51 0 0 51 0 0 51 0 0 51 0 0 51 0 0 51 0 0 51 0 0 51 0 0 51 0 0 51 0 0 51 0 0 51 0 0 51 0 0 51 0 0 51 0 0 51 0 0 51 0 0 51 0 0 51 0 0 51 0 0 51 
0 0 51 0 0 51 0 0 51 0 0 51 0 0 51 0 0 51 0 0 51 0 0 51 0 0 51 0 0 51 0 0 51 0 0 51 0 0 51 0 0 51 0 0 51 0 0 51 0 0 51 0 0 51 0 0 51 0 0 51 0 0 51 0 0 51 0 0 51 0 0 51 0 0 51 0 0 51 0 0 51 0 0 51 0 0 51 0 0 51 0 0 51 0 0 51 0 0 51 0 0 51 0 0 51 0 0 51 0 0 51 0 0 51 0 0 51 0 0 51 0 0 51 0 0 51 0 0 51 0 0 51 0 0 51 0 0 51 0 0 51 0 0 51 0 0 51 0 0 51 
0 0 51 0 0 51 0 0 51 0 0 51 0 0 51 0 0 51 0 0 51 0 0 51 0 0 51 0 0 51 0 0 51 0 0 51 0 0 51 0 0 51 0 0 51 0 0 51 0 0 51 0 0 51 0 0 51 0 0 51 0 0 51 0 0 51 0 0 51 0 0 51 0 0 51 0 0 51 0 0 51 0 0 51 0 0 51 0 0 51 0 0 51 0 0 51 0 0 51 0 0 51 0 0 51 0 0 51 0 0 51 0 0 51 0 0 51 0 0 51 0 0 51 0 0 51 0 0 51 0 0 51 0 0 51 0 0 51 0 0 51 0 0 51 0 0 51 0 0 51 
0 0 51 0 0 51 0 0 51 0 0 51 0 0 51 0 0 51 0 0 51 0 0 51 0 0 51 0 0 51 0 0 51 0 0 51 0 0 51 0 0 51 0 0 51 0 0 51 0 0 51 0 0 51 0 0 51 0 0 51 0 0 51 0 0 51 0 0 51 0 0 51 0 0 51 0 0 51 0 0 51 0 0 51 0 0 51 0 0 51 0 0 51 0 0 51 0 0 51 0 0 51 0 0 51 0 0 51 0 0 51 0 0 51 0 0 51 0 0 51 0 0 51 0 0 51 0 0 51 0 0 51 0 0 51 0 0 51 0 0 51 0 0 51 0 0 51 0 0 51 
0 0 51 0 0 51 0 0 51 0 0 51 0 0 51 0 0 51 0 0 51 0 0 51 0 0 51 0 0 51 0 0 51 0 0 51 0 0 51 0 0 51 0 0 51 0 0 51 0 0 51 0 0 51 0 0 51 0 0 51 0 0 51 0 0 51 0 0 51 0 0 51 0 0 51 0 0 51 0 0 51 0 0 51 0 0 51 0 0 51 0 0 51 0 0 51 0 0 51 0 0 51 0 0 51 0 0 51 0 0 51 0 0 51 0 0 51 0 0 51 0 0 51 0 0 51 0 0 51 0 0 51 0 0 51 0 0 51 0 0 51 0 0 51 0 0 51 0 0 51 
0 0 51 0 0 51 0 0 51 0 0 51 0 0 51 0 0 51 0 0 51 0 0 51 0 0 51 0 0 51 0 0 51 0 0 51 0 0 51 0 0 51 0 0 51 0 0 51 0 0 51 0 0 51 0 0 51 0 0 51 0 0 51 0 0 51 0 0 51 0 0 51 0 0 51 0 139 0 0 0 51 0 0 51 0 0 51 0 0 51 0 0 51 0 0 51 0 0 51 0 0 51 0 0 51 0 0 51 0 0 51 0 0 51 0 0 51 0 0 51 0 0 51 0 0 51 0 0 51 0 0 51 0 0 51 0 0 51 0 0 51 0 0 51 0 0 51 0 0 51 
0 0 51 0 0 51 0 0 51 0 0 51 0 0 51 0 0 51 0 0 51 0 0 51 0 0 51 0 0 51 0 0 51 0 0 51 0 0 51 0 0 51 0 0 51 0 0 51 0 0 51 0 0 51 0 0 51 0 0 51 0 0 51 0 0 51 0 0 51 0 0 51 0 0 51 0 140 0 0 141 0 0 0 51 0 0 51 0 0 51 0 0 51 0 0 51 0 0 51 0 0 51 0 0 51 0 0 51 0 0 51 0 0 51 0 0 51 0 0 51 0 0 51 0 0 51 0 0 51 0 0 51 0 0 51 0 0 51 0 0 51 0 0 51 0 0 51 0 0 51 
0 0 51 0 0 51 0 0 51 0 0 51 0 0 51 0 0 51 0 0 51 0 0 51 0 0 51 0 0 51 0 0 51 0 0 51 0 0 51 0 0 51 0 0 51 0 0 51 0 0 51 0 0 51 0 0 51 0 0 51 0 0 51 0 0 51 0 0 51 0 0 51 0 0 51 0 140 0 0 141 0 0 142 0 0 0 51 0 0 51 0 0 51 0 0 51 0 0 51 0 0 51 0 0 51 0 0 51 0 0 51 0 0 51 0 0 51 0 0 51 0 0 51 0 0 51 0 0 51 0 0 51 0 0 51 0 0 51 0 0 51 0 0 51 0 0 51 0 0 51 
0 0 51 0 0 51 0 0 51 0 0 51 0 0 51 0 0 51 0 0 51 0 0 51 0 0 51 0 0 51 0 0 51 0 0 51 0 0 51 0 0 51 0 0 51 0 0 51 0 0 51 0 0 51 0 0 51 0 0 51 0 0 51 0 0 51 0 0 51 0 0 51 0 0 51 0 141 0 0 142 0 0 142 0 0 143 0 0 0 51 0 0 51 0 0 51 0 0 51 0 0 51 0 0 51 0 0 51 0 0 51 0 0 51 0 0 51 0 0 51 0 0 51 0 0 51 0 0 51 0 0 51 0 0 51 0 0 51 0 0 51 0 0 51 0 0 51 0 0 51 
0 0 51 0 0 51 0 0 51 0 0 51 0 0 51 0 0 51 0 0 51 0 0 51 0 0 51 0 0 51 0 0 51 0 0 51 0 0 51 0 0 51 0 0 51 0 0 51 0 0 51 0 0 51 0 0 51 0 0 51 0 0 51 0 0 51 0 0 51 0 0 51 0 0 51 0 141 0 0 142 0 0 143 0 0 143 0 0 144 0 0 0 51 0 0 51 0 0 51 0 0 51 0 0 51 0 0 51 0 0 51 0 0 51 0 0 51 0 0 51 0 0 51 0 0 51 0 0 51 0 0 51 0 0 51 0 0 51 0 0 51 0 0 51 0 0 51 0 0 51 
0 0 51 0 0 51 0 0 51 0 0 51 0 0 51 0 0 51 0 0 51 0 0 51 0 0 51 0 0 51 0 0 51 0 0 51 0 0 51 0 0 51 0 0 51 0 0 51 0 0 51 0 0 51 0 0 51 0 0 51 0 0 51 0 0 51 0 0 51 0 0 51 0 0 51 0 142 0 0 143 0 0 143 0 0 144 0 0 144 0 0 145 0 0 0 51 0 0 51 0 0 51 0 0 51 0 0 51 0 0 51 0 0 51 0 0 51 0 0 51 0 0 51 0 0 51 0 0 51 0 0 51 0 0 51 0 0 51 0 0 51 0 0 51 0 0 51 0 0 51 
0 0 51 0 0 51 0 0 51 0 0 51 0 0 51 0 0 51 0 0 51 0 0 51 0 0 51 0 0 51 0 0 51 0 0 51 0 0 51 0 0 51 0 0 51 0 0 51 0 0 51 0 0 51 0 0 51 0 0 51 0 0 51 0 0 51 0 0 51 0 0 51 0 0 51 0 142 0 0 143 0 0 144 0 0 144 0 0 145 0 0 145 0 0 146 0 0 0 51 0 0 51 0 0 51 0 0 51 0 0 51 0 0 51 0 0 51 0 0 51 0 0 51 0 0 51 0 0 51 0 0 51 0 0 51 0 0 51 0 0 51 0 0 51 0 0 51 0 0 51 
0 0 51 0 0 51 0 0 51 0 0 51 0 0 51 0 0 51 0 0 51 0 0 51 0 0 51 0 0 51 0 0 51 0 0 51 0 0 51 0 0 51 0 0 51 0 0 51 0 0 51 0 0 51 0 0 51 0 0 51 0 0 51 0 0 51 0 0 51 0 0 51 0 0 51 0 143 0 0 143 0 0 144 0 0 145 0 0 145 0 0 146 0 0 146 0 0 147 0 0 0 51 0 0 51 0 0 51 0 0 51 0 0 51 0 0 51 0 0 51 0 0 51 0 0 51 0 0 51 0 0 51 0 0 51 0 0 51 0 0 51 0 0 51 0 0 51 0 0 51 
0 0 51 0 0 51 0 0 51 0 0 51 0 0 51 0 0 51 0 0 51 0 0 51 0 0 51 0 0 51 0 0 51 0 0 51 0 0 51 0 0 51 0 0 51 0 0 51 0 0 51 0 0 51 0 0 51 0 0 51 0 0 51 0 0 51 0 0 51 0 0 51 0 0 51 0 143 0 0 144 0 0 144 0 0 145 0 0 146 0 0 146 0 0 147 0 0 147 0 0 148 0 0 0 51 0 0 51 0 0 51 0 0 51 0 0 51 0 0 51 0 0 51 0 0 51 0 0 51 0 0 51 0 0 51 0 0 51 0 0 51 0 0 51 0 0 51 0 0 51 
0 0 51 0 0 51 0 0 51 0 0 51 0 0 51 0 0 51 0 0 51 0 0 51 0 0 51 0 0 51 0 0 51 0 0 51 0 0 51 0 0 51 0 0 51 0 0 51 0 0 51 0 0 51 0 0 51 0 0 51 0 0 51 0 0 51 0 0 51 0 0 51 0 0 51 0 143 0 0 144 0 0 145 0 0 145 0 0 146 0 0 147 0 0 147 0 0 148 0 0 148 0 0 149 0 0 0 51 0 0 51 0 0 51 0 0 51 0 0 51 0 0 51 0 0 51 0 0 51 0 0 51 0 0 51 0 0 51 0 0 51 0 0 51 0 0 51 0 0 51 
0 0 51 0 0 51 0 0 51 0 0 51 0 0 51 0 0 51 0 0 51 0 0 51 0 0 51 0 0 51 0 0 51 0 0 51 0 0 51 0 0 51 0 0 51 0 0 51 0 0 51 0 0 51 0 0 51 0 0 51 0 0 51 0 0 51 0 0 51 0 0 51 0 0 51 0 144 0 0 144 0 0 145 0 0 146 0 0 146 0 0 147 0 0 147 0 0 148 0 0 148 0 0 149 0 0 149 0 0 0 51 0 0 51 0 0 51 0 0 51 0 0 51 0 0 51 0 0 51 0 0 51 0 0 51 0 0 51 0 0 51 0 0 51 0 0 51 0 0 51 
0 0 51 0 0 51 0 0 51 0 0 51 0 0 51 0 0 51 0 0 51 0 0 51 0 0 51 0 0 51 0 0 51 0 0 51 0 0 51 0 0 51 0 0 51 0 0 51 0 0 51 0 0 51 0 0 51 0 0 51 0 0 51 0 0 51 0 0 51 0 0 51 0 0 51 0 144 0 0 145 0 0 145 0 0 146 0 0 147 0 0 147 0 0 148 0 0 148 0 0 149 0 0 150 0 0 150 0 0 150 0 0 0 51 0 0 51 0 0 51 0 0 51 0 0 51 0 0 51 0 0 51 0 0 51 0 0 51 0 0 51 0 0 51 0 0 51 0 0 51 
0 0 51 0 0 51 0 0 51 0 0 51 0 0 51 0 0 51 0 0 51 0 0 51 0 0 51 0 0 51 0 0 51 0 0 51 0 0 51 0 0 51 0 0 51 0 0 51 0 0 51 0 0 51 0 0 51 0 0 51 0 0 51 0 0 51 0 0 51 0 0 51 0 0 51 0 144 0 0 145 0 0 146 0 0 146 0 0 147 0 0 148 0 0 148 0 0 149 0 0 150 0 0 151 0 0 151 0 0 151 0 0 151 0 0 0 51 0 0 51 0 0 51 0 0 51 0 0 51 0 0 51 0 0 51 0 0 51 0 0 51 0 0 51 0 0 51 0 0 51 
0 0 51 0 0 51 0 0 51 0 0 51 0 0 51 0 0 51 0 0 51 0 0 51 0 0 51 0 0 51 0 0 51 0 0 51 0 0 51 0 0 51 0 0 51 0 0 51 0 0 51 0 0 51 0 0 51 0 0 51 0 0 51 0 0 51 0 0 51 0 0 51 0 0 51 0 144 0 0 145 0 0 146 0 0 146 0 0 147 0 0 148 0 0 150 0 0 152 0 0 154 0 0 155 0 0 155 0 0 153 0 0 152 0 0 152 0 0 0 51 0 0 51 0 0 51 0 0 51 0 0 51 0 0 51 0 0 51 0 0 51 0 0 51 0 0 51 0 0 51 
0 0 51 0 0 51 0 0 51 0 0 51 0 0 51 0 0 51 0 0 51 0 0 51 0 0 51 0 0 51 0 0 51 0 0 51 0 0 51 0 0 51 0 0 51 0 0 51 0 0 51 0 0 51 0 0 51 0 0 51 0 0 51 0 0 51 0 0 51 0 0 51 0 0 51 0 145 0 0 145 0 0 146 0 0 147 0 0 148 0 0 150 0 0 154 0 0 159 0 0 163 0 0 165 0 0 163 0 0 159 0 0 155 0 0 153 0 0 152 0 0 0 51 0 0 51 0 0 51 0 0 51 0 0 51 0 0 51 0 0 51 0 0 51 0 0 51 0 0 51 
0 0 51 0 0 51 0 0 51 0 0 51 0 0 51 0 0 51 0 0 51 0 0 51 0 0 51 0 0 51 0 0 51 0 0 51 0 0 51 0 0 51 0 0 51 0 0 51 0 0 51 0 0 51 0 0 51 0 0 51 0 0 51 0 0 51 0 0 51 0 0 51 0 0 51 0 145 0 0 145 0 0 146 0 0 147 0 0 149 0 0 153 0 0 160 0 0 170 0 0 180 0 0 183 0 0 179 0 0 170 0 0 161 0 0 155 0 0 153 0 0 152 0 0 0 51 0 0 51 0 0 51 0 0 51 0 0 51 0 0 51 0 0 51 0 0 51 0 0 51 
0 0 51 0 0 51 0 0 51 0 0 51 0 0 51 0 0 51 0 0 51 0 0 51 0 0 51 0 0 51 0 0 51 0 0 51 0 0 51 0 0 51 0 0 51 0 0 51 0 0 51 0 0 51 0 0 51 0 0 51 0 0 51 0 0 51 0 0 51 0 0 51 0 0 51 0 145 0 0 145 0 0 146 0 0 148 0 0 150 0 0 157 0 0 169 0 0 186 0 0 201 0 0 207 0 0 199 0 0 183 0 0 168 0 0 158 0 0 154 0 0 153 0 0 152 0 0 0 51 0 0 51 0 0 51 0 0 51 0 0 51 0 0 51 0 0 51 0 0 51 
0 0 51 0 0 51 0 0 51 0 0 51 0 0 51 0 0 51 0 0 51 0 0 51 0 0 51 0 0 51 0 0 51 0 0 51 0 0 51 0 0 51 0 0 51 0 0 51 0 0 51 0 0 51 0 0 51 0 0 51 0 0 51 0 0 51 0 0 51 0 0 51 0 0 51 0 145 0 0 146 0 0 146 0 0 148 0 0 151 0 0 159 0 0 175 0 0 197 0 0 217 0 0 224 0 0 214 0 0 193 0 0 173 0 0 160 0 0 155 0 0 153 0 0 152 0 0 152 0 0 0 51 0 0 51 0 0 51 0 0 51 0 0 51 0 0 51 0 0 51 
0 0 51 0 0 51 0 0 51 0 0 51 0 0 51 0 0 51 0 0 51 0 0 51 0 0 51 0 0 51 0 0 51 0 0 51 0 0 51 0 0 51 0 0 51 0 0 51 0 0 51 0 0 51 0 0 51 0 0 51 0 0 51 0 0 51 0 0 51 0 0 51 0 0 51 0 0 51 0 0 51 0 0 51 0 0 51 0 0 51 0 0 51 0 0 51 0 0 51 0 0 51 0 0 51 0 0 51 0 0 51 0 0 51 0 0 51 0 0 51 0 0 51 0 0 51 0 0 51 0 0 51 0 0 51 0 0 51 0 0 51 0 0 51 0 0 51 0 0 51 
0 0 51 0 0 51 0 0 51 0 0 51 0 0 51 0 0 51 0 0 51 0 0 51 0 0 51 0 0 51 0 0 51 0 0 51 0 0 51 0 0 51 0 0 51 0 0 51 0 0 51 0 0 51 0 0 51 0 0 51 0 0 51 0 0 51 0 0 51 0 0 51 0 0 51 0 0 51 0 0 51 0 0 51 0 0 51 0 0 51 0 0 51 0 0 51 0 0 51 0 0 51 0 0 51 0 0 51 0 0 51 0 0 51 0 0 51 0 0 51 0 0 51 0 0 51 0 0 51 0 0 51 0 0 51 0 0 51 0 0 51 0 0 51 0 0 51 0 0 51 
0 0 51 0 0 51 0 0 51 0 0 51 0 0 51 0 0 51 0 0 51 0 0 51 0 0 51 0 0 51 0 0 51 0 0 51 0 0 51 0 0 51 0 0 51 0 0 51 0 0 51 0 0 51 0 0 51 0 0 51 0 0 51 0 0 51 0 0 51 0 0 51 0 0 51 0 0 51 0 0 51 0 0 51 0 0 51 0 0 51 0 0 51 0 0 51 0 0 51 0 0 51 0 0 51 0 0 51 0 0 51 0 0 51 0 0 51 0 0 51 0 0 51 0 0 51 0 0 51 0 0 51 0 0 51 0 0 51 0 0 51 0 0 51 0 0 51 0 0 51 
0 0 51 0 0 51 0 0 51 0 0 51 0 0 51 0 0 51 0 0 51 0 0 51 0 0 51 0 0 51 0 0 51 0 0 51 0 0 51 0 0 51 0 0 51 0 0 51 0 0 51 0 0 51 0 0 51 0 0 51 0 0 51 0 0 51 0 0 51 0 0 51 0 0 51 0 0 51 0 0 51 0 0 51 0 0 51 0 0 51 0 0 51 0 0 51 0 0 51 0 0 51 0 0 51 0 0 51 0 0 51 0 0 51 0 0 51 0 0 51 0 0 51 0 0 51 0 0 51 0 0 51 0 0 51 0 0 51 0 0 51 0 0 51 0 0 51 0 0 51 
0 0 51 0 0 51 0 0 51 0 0 51 0 0 51 0 0 51 0 0 51 0 0 51 0 0 51 0 0 51 0 0 51 0 0 51 0 0 51 0 0 51 0 0 51 0 0 51 0 0 51 0 0 51 0 0 51 0 0 51 0 0 51 0 0 51 0 0 51 0 0 51 0 0 51 0 0 51 0 0 51 0 0 51 0 0 51 0 0 51 0 0 51 0 0 51 0 0 51 0 0 51 0 0 51 0 0 51 0 0 51 0 0 51 0 0 51 0 0 51 0 0 51 0 0 51 0 0 51 0 0 51 0 0 51 0 0 51 0 0 51 0 0 51 0 0 51 0 0 51 
0 0 51 0 0 51 0 0 51 0 0 51 0 0 51 0 0 51 0 0 51 0 0 51 0 0 51 0 0 51 0 0 51 0 0 51 0 0 51 0 0 51 0 0 51 0 0 51 0 0 51 0 0 51 0 0 51 0 0 51 0 0 51 0 0 51 0 0 51 0 0 51 0 0 51 0 0 51 0 0 51 0 0 51 0 0 51 0 0 51 0 0 51 0 0 51 0 0 51 0 0 51 0 0 51 0 0 51 0 0 51 0 0 51 0 0 51 0 0 51 0 0 51 0 0 51 0 0 51 0 0 51 0 0 51 0 0 51 0 0 51 0 0 51 0 0 51 0 0 51 
0 0 51 0 0 51 0 0 51 0 0 51 0 0 51 0 0 51 0 0 51 0 0 51 0 0 51 0 0 51 0 0 51 0 0 51 0 0 51 0 0 51 0 0 51 0 0 51 0 0 51 0 0 51 0 0 51 0 0 51 0 0 51 0 0 51 0 0 51 0 0 51 0 0 51 0 0 51 0 0 51 0 0 51 0 0 51 0 0 51 0 0 51 0 0 51 0 0 51 0 0 51 0 0 51 0 0 51 0 0 51 0 0 51 0 0 51 0 0 51 0 0 51 0 0 51 0 0 51 0 0 51 0 0 51 0 0 51 0 0 51 0 0 51 0 0 51 0 0 51 
0 0 51 0 0 51 0 0 51 0 0 51 0 0 51 0 0 51 0 0 51 0 0 51 0 0 51 0 0 51 0 0 51 0 0 51 0 0 51 0 0 51 0 0 51 0 0 51 0 0 51 0 0 51 0 0 51 0 0 51 0 0 51 0 0 51 0 0 51 0 0 51 0 0 51 0 0 51 0 0 51 0 0 51 0 0 51 0 0 51 0 0 51 0 0 51 0 0 51 0 0 51 0 0 51 0 0 51 0 0 51 0 0 51 0 0 51 0 0 51 0 0 51 0 0 51 0 0 51 0 0 51 0 0 51 0 0 51 0 0 51 0 0 51 0 0 51 0 0 51 
0 0 51 0 0 51 0 0 51 0 0 51 0 0 51 0 0 51 0 0 51 0 0 51 0 0 51 0 0 51 0 0 51 0 0 51 0 0 51 0 0 51 0 0 51 0 0 51 0 0 51 0 0 51 0 0 51 0 0 51 0 0 51 0 0 51 0 0 51 0 0 51 0 0 51 0 0 51 0 0 51 0 0 51 0 0 51 0 0 51 0 0 51 0 0 51 0 0 51 0 0 51 0 0 51 0 0 51 0 0 51 0 0 51 0 0 51 0 0 51 0 0 51 0 0 51 0 0 51 0 0 51 0 0 51 0 0 51 0 0 51 0 0 51 0 0 51 0 0 51 
0 0 51 0 0 51 0 0 51 0 0 51 0 0 51 0 0 51 0 0 51 0 0 51 0 0 51 0 0 51 0 0 51 0 0 51 0 0 51 0 0 51 0 0 51 0 0 51 0 0 51 0 0 51 0 0 51 0 0 51 0 0 51 0 0 51 0 0 51 0 0 51 0 0 51 0 0 51 0 0 51 0 0 51 0 0 51 0 0 51 0 0 51 0 0 51 0 0 51 0 0 51 0 0 51 0 0 51 0 0 51 0 0 51 0 0 51 0 0 51 0 0 51 0 0 51 0 0 51 0 0 51 0 0 51 0 0 51 0 0 51 0 0 51 0 0 51 0 0 51 
0 0 51 0 0 51 0 0 51 0 0 51 0 0 51 0 0 51 0 0 51 0 0 51 0 0 51 0 0 51 0 0 51 0 0 51 0 0 51 0 0 51 0 0 51 0 0 51 0 0 51 0 0 51 0 0 51 0 0 51 0 0 51 0 0 51 0 0 51 0 0 51 0 0 51 0 0 51 0 0 51 0 0 51 0 0 51 0 0 51 0 0 51 0 0 51 0 0 51 0 0 51 0 0 51 0 0 51 0 0 51 0 0 51 0 0 51 0 0 51 0 0 51 0 0 51 0 0 51 0 0 51 0 0 51 0 0 51 0 0 51 0 0 51 0 0 51 0 0 51 
0 0 51 0 0 51 0 0 51 0 0 51 0 0 51 0 0 51 0 0 51 0 0 51 0 0 51 0 0 51 0 0 51 0 0 51 0 0 51 0 0 51 0 0 51 0 0 51 0 0 51 0 0 51 0 0 51 0 0 51 0 0 51 0 0 51 0 0 51 0 0 51 0 0 51 0 0 51 0 0 51 0 0 51 0 0 51 0 0 51 0 0 51 0 0 51 0 0 51 0 0 51 0 0 51 0 0 51 0 0 51 0 0 51 0 0 51 0 0 51 0 0 51 0 0 51 0 0 51 0 0 51 0 0 51 0 0 51 0 0 51 0 0 51 0 0 51 0 0 51 
0 0 51 0 0 51 0 0 51 0 0 51 0 0 51 0 0 51 0 0 51 0 0 51 0 0 51 0 0 51 0 0 51 0 0 51 0 0 51 0 0 51 0 0 51 0 0 51 0 0 51 0 0 51 0 0 51 0 0 51 0 0 51 0 0 51 0 0 51 0 0 51 0 0 51 0 0 51 0 0 51 0 0 51 0 0 51 0 0 51 0 0 51 0 0 51 0 0 51 0 0 51 0 0 51 0 0 51 0 0 51 0 0 51 0 0 51 0 0 51 0 0 51 0 0 51 0 0 51 0 0 51 0 0 51 0 0 51 0 0 51 0 0 51 0 0 51 0 0 51 
0 0 51 0 0 51 0 0 51 0 0 51 0 0 51 0 0 51 0 0 51 0 0 51 0 0 51 0 0 51 0 0 51 0 0 51 0 0 51 0 0 51 0 0 51 0 0 51 0 0 51 0 0 51 0 0 51 0 0 51 0 0 51 0 0 51 0 0 51 0 0 51 0 0 51 0 0 51 0 0 51 0 0 51 0 0 51 0 0 51 0 0 51 0 0 51 0 0 51 0 0 51 0 0 51 0 0 51 0 0 51 0 0 51 0 0 51 0 0 51 0 0 51 0 0 51 0 0 51 0 0 51 0 0 51 0 0 51 0 0 51 0 0 51 0 0 51 0 0 51 
0 0 51 0 0 51 0 0 51 0 0 51 0 0 51 0 0 51 0 0 51 0 0 51 0 0 51 0 0 51 0 0 51 0 0 51 0 0 51 0 0 51 0 0 51 0 0 51 0 0 51 0 0 51 0 0 51 0 0 51 0 0 51 0 0 51 0 0 51 0 0 51 0 0 51 0 0 51 0 0 51 0 0 51 0 0 51 0 0 51 0 0 51 0 0 51 0 0 51 0 0 51 0 0 51 0 0 51 0 0 51 0 0 51 0 0 51 0 0 51 0 0 51 0 0 51 0 0 51 0 0 51 0 0 51 0 0 51 0 0 51 0 0 51 0 0 51 0 0 51 
0 0 51 0 0 51 0 0 51 0 0 51 0 0 51 0 0 51 0 0 51 0 0 51 0 0 51 0 0 51 0 0 51 0 0 51 0 0 51 0 0 51 0 0 51 0 0 51 0 0 51 0 0 51 0 0 51 0 0 51 0 0 51 0 0 51 0 0 51 0 0 51 0 0 51 0 0 51 0 0 51 0 0 51 0 0 51 0 0 51 0 0 51 0 0 51 0 0 51 0 0 51 0 0 51 0 0 51 0 0 51 0 0 51 0 0 51 0 0 51 0 0 51 0 0 51 0 0 51 0 0 51 0 0 51 0 0 51 0 0 51 0 0 51 0 0 51 0 0 51 
0 0 51 0 0 51 0 0 51 0 0 51 0 0 51 0 0 51 0 0 51 0 0 51 0 0 51 0 0 51 0 0 51 0 0 51 0 0 51 0 0 51 0 0 51 0 0 51 0 0 51 0 0 51 0 0 51 0 0 51 0 0 51 0 0 51 0 0 51 0 0 51 0 0 51 0 0 51 0 0 51 0 0 51 0 0 51 0 0 51 0 0 51 0 0 51 0 0 51 0 0 51 0 0 51 0 0 51 0 0 51 0 0 51 0 0 51 0 0 51 0 0 51 0 0 51 0 0 51 0 0 51 0 0 51 0 0 51 0 0 51 0 0 51 0 0 51 0 0 51 
0 0 51 0 0 51 0 0 51 0 0 51 0 0 51 0 0 51 0 0 51 0 0 51 0 0 51 0 0 51 0 0 51 0 0 51 0 0 51 0 0 51 0 0 51 0 0 51 0 0 51 0 0 51 0 0 51 0 0 51 0 0 51 0 0 51 0 0 51 0 0 51 0 0 51 0 0 51 0 0 51 0 0 51 0 0 51 0 0 51 0 0 51 0 0 51 0 0 51 0 0 51 0 0 51 0 0 51 0 0 51 0 0 51 0 0 51 0 0 51 0 0 51 0 0 51 0 0 51 0 0 51 0 0 51 0 0 51 0 0 51 0 0 51 0 0 51 0 0 51 
0 0 51 0 0 51 0 0 51 0 0 51 0 0 51 0 0 51 0 0 51 0 0 51 0 0 51 0 0 51 0 0 51 0 0 51 0 0 51 0 0 51 0 0 51 0 0 51 0 0 51 0 0 51 0 0 51 0 0 51 0 0 51 0 0 51 0 0 51 0 0 51 0 0 51 0 0 51 0 0 51 0 0 51 0 0 51 0 0 51 0 0 51 0 0 51 0 0 51 0 0 51 0 0 51 0 0 51 0 0 51 0 0 51 0 0 51 0 0 51 0 0 51 0 0 51 0 0 51 0 0 51 0 0 51 0 0 51 0 0 51 0 0 51 0 0 51 0 0 51 
0 0 51 0 0 51 0 0 51 0 0 51 0 0 51 0 0 51 0 0 51 0 0 51 0 0 51 0 0 51 0 0 51 0 0 51 0 0 51 0 0 51 0 0 51 0 0 51 0 0 51 0 0 51 0 0 51 0 0 51 0 0 51 0 0 51 0 0 51 0 0 51 0 0 51 0 0 51 0 0 51 0 0 51 0 0 51 0 0 51 0 0 51 0 0 51 0 0 51 0 0 51 0 0 51 0 0 51 0 0 51 0 0 51 0 0 51 0 0 51 0 0 51 0 0 51 0 0 51 0 0 51 0 0 51 0 0 51 0 0 51 0 0 51 0 0 51 0 0 51 
0 0 51 0 0 51 0 0 51 0 0 51 0 0 51 0 0 51 0 0 51 0 0 51 0 0 51 0 0 51 0 0 51 0 0 51 0 0 51 0 0 51 0 0 51 0 0 51 0 0 51 0 0 51 0 0 51 0 0 51 0 0 51 0 0 51 0 0 51 0 0 51 0 0 51 0 0 51 0 0 51 0 0 51 0 0 51 0 0 51 0 0 51 0 0 51 0 0 51 0 0 51 0 0 51 0 0 51 0 0 51 0 0 51 0 0 51 0 0 51 0 0 51 0 0 51 0 0 51 0 0 51 0 0 51 0 0 51 0 0 51 0 0 51 0 0 51 0 0 51 
0 0 51 0 0 51 0 0 51 0 0 51 0 0 51 0 0 51 0 0 51 0 0 51 0 0 51 0 0 51 0 0 51 0 0 51 0 0 51 0 0 51 0 0 51 0 0 51 0 0 51 0 0 51 0 0 51 0 0 51 0 0 51 0 0 51 0 0 51 0 0 51 0 0 51 0 0 51 0 0 51 0 0 51 0 0 51 0 0 51 0 0 51 0 0 51 0 0 51 0 0 51 0 0 51 0 0 51 0 0 51 0 0 51 0 0 51 0 0 51 0 0 51 0 0 51 0 0 51 0 0 51 0 0 51 0 0 51 0 0 51 0 0 51 0 0 51 0 0 51 
0 0 51 0 0 51 0 0 51 0 0 51 0 0 51 0 0 51 0 0 51 0 0 51 0 0 51 0 0 51 0 0 51 0 0 51 0 0 51 0 0 51 0 0 51 0 0 51 0 0 51 0 0 51 0 0 51 0 0 51 0 0 51 0 0 51 0 0 51 0 0 51 0 0 51 0 0 51 0 0 51 0 0 51 0 0 51 0 0 51 0 0 51 0 0 51 0 0 51 0 0 51 0 0 51 0 0 51 0 0 51 0 0 51 0 0 51 0 0 51 0 0 51 0 0 51 0 0 51 0 0 51 0 0 51 0 0 51 0 0 51 0 0 51 0 0 51 0 0 51 
0 0 51 0 0 51 0 0 51 0 0 51 0 0 51 0 0 51 0 0 51 0 0 51 0 0 51 0 0 51 0 0 51 0 0 51 0 0 51 0 0 51 0 0 51 0 0 51 0 0 51 0 0 51 0 0 51 0 0 51 0 0 51 0 0 51 0 0 51 0 0 51 0 0 51 0 0 51 0 0 51 0 0 51 0 0 51 0 0 51 0 0 51 0 0 51 0 0 51 0 0 51 0 0 51 0 0 51 0 0 51 0 0 51 0 0 51 0 0 51 0 0 51 0 0 51 0 0 51 0 0 51 0 0 51 0 0 51 0 0 51 0 0 51 0 0 51 0 0 51 
0 0 51 0 0 51 0 0 51 0 0 51 0 0 51 0 0 51 0 0 51 0 0 51 0 0 51 0 0 51 0 0 51 0 0 51 0 0 51 0 0 51 0 0 51 0 0 51 0 0 51 0 0 51 0 0 51 0 0 51 0 0 51 0 0 51 0 0 51 0 0 51 0 0 51 0 0 51 0 0 51 0 0 51 0 0 51 0 0 51 0 0 51 0 0 51 0 0 51 0 0 51 0 0 51 0 0 51 0 0 51 0 0 51 0 0 51 0 0 51 0 0 51 0 0 51 0 0 51 0 0 51 0 0 51 0 0 51 0 0 51 0 0 51 0 0 51 0 0 51 
